<?xml version="1.0" encoding="UTF-8" standalone="no"?>
<!-- Generator: Adobe Illustrator 16.2.1, SVG Export Plug-In . SVG Version: 6.00 Build 0)  -->

<svg
   xmlns:dc="http://purl.org/dc/elements/1.1/"
   xmlns:cc="http://creativecommons.org/ns#"
   xmlns:rdf="http://www.w3.org/1999/02/22-rdf-syntax-ns#"
   xmlns:svg="http://www.w3.org/2000/svg"
   xmlns="http://www.w3.org/2000/svg"
   xmlns:sodipodi="http://sodipodi.sourceforge.net/DTD/sodipodi-0.dtd"
   xmlns:inkscape="http://www.inkscape.org/namespaces/inkscape"
   version="1.1"
   x="0px"
   y="0px"
   width="70px"
   height="110px"
   viewBox="0 0 70 110"
   style="enable-background:new 0 0 70 110;"
   xml:space="preserve"
   id="svg2"
   inkscape:version="0.91 r13725"
   sodipodi:docname="pin.svg"><metadata
     id="metadata14"><rdf:RDF><cc:Work
         rdf:about=""><dc:format>image/svg+xml</dc:format><dc:type
           rdf:resource="http://purl.org/dc/dcmitype/StillImage" /></cc:Work></rdf:RDF></metadata><defs
     id="defs12" /><sodipodi:namedview
     pagecolor="#ffffff"
     bordercolor="#666666"
     borderopacity="1"
     objecttolerance="10"
     gridtolerance="10"
     guidetolerance="10"
     inkscape:pageopacity="0"
     inkscape:pageshadow="2"
     inkscape:window-width="1600"
     inkscape:window-height="842"
     id="namedview10"
     showgrid="false"
     showguides="false"
     inkscape:zoom="8.5818182"
     inkscape:cx="37.518374"
     inkscape:cy="81.374541"
     inkscape:window-x="0"
     inkscape:window-y="26"
     inkscape:window-maximized="1"
     inkscape:current-layer="svg2" /><g
     id="Layer_1"><g
       id="g5"><path
         style="fill:#333333"
         d="M 35,4.319 C 17.566,4.319 3.438,18.448 3.438,35.881 3.438,67.444 35,105.319 35,105.319 c 0,0 31.562,-37.875 31.562,-69.438 C 66.562,18.448 52.434,4.319 35,4.319 Z m 0.002,57.426 C 22.274213,61.596827 16.331136,53.497508 14.8,51.19 12.083,47.274 10.484,42.538 10.484,37.432 c 0,-13.41 10.998,-24.316 24.518,-24.316 13.516,0 24.512,10.906 24.512,24.316 0.002,13.411 -10.996,24.313 -24.512,24.313 z"
         id="path7"
         inkscape:connector-curvature="0"
         sodipodi:nodetypes="sscssccsscc" /></g></g><g
     id="nyt_x5F_exporter_x5F_info"
     style="display:none;" /></svg>