<?xml version="1.0" encoding="UTF-8" standalone="no"?>
<!-- Generator: Adobe Illustrator 16.2.1, SVG Export Plug-In . SVG Version: 6.00 Build 0)  -->

<svg
   xmlns:dc="http://purl.org/dc/elements/1.1/"
   xmlns:cc="http://creativecommons.org/ns#"
   xmlns:rdf="http://www.w3.org/1999/02/22-rdf-syntax-ns#"
   xmlns:svg="http://www.w3.org/2000/svg"
   xmlns="http://www.w3.org/2000/svg"
   xmlns:sodipodi="http://sodipodi.sourceforge.net/DTD/sodipodi-0.dtd"
   xmlns:inkscape="http://www.inkscape.org/namespaces/inkscape"
   version="1.1"
   x="0px"
   y="0px"
   width="640px"
   height="640px"
   viewBox="0 0 640 640"
   style="enable-background:new 0 0 640 640;"
   xml:space="preserve"
   id="svg2"
   inkscape:version="0.91 r13725"
   sodipodi:docname="radar.svg"
   inkscape:export-filename="/home/altin/fixmystreetapp/fixmystreet-mobile/www/images/radar-lokalizo.png"
   inkscape:export-xdpi="92.199997"
   inkscape:export-ydpi="92.199997"><metadata
     id="metadata74"><rdf:RDF><cc:Work
         rdf:about=""><dc:format>image/svg+xml</dc:format><dc:type
           rdf:resource="http://purl.org/dc/dcmitype/StillImage" /></cc:Work></rdf:RDF></metadata><defs
     id="defs72" /><sodipodi:namedview
     pagecolor="#ffffff"
     bordercolor="#666666"
     borderopacity="1"
     objecttolerance="10"
     gridtolerance="10"
     guidetolerance="10"
     inkscape:pageopacity="0"
     inkscape:pageshadow="2"
     inkscape:window-width="1920"
     inkscape:window-height="1017"
     id="namedview70"
     showgrid="false"
     inkscape:zoom="0.73750001"
     inkscape:cx="161.89802"
     inkscape:cy="191.28122"
     inkscape:window-x="-4"
     inkscape:window-y="-4"
     inkscape:window-maximized="1"
     inkscape:current-layer="svg2" /><g
     id="grid"
     inkscape:export-filename="/home/altin/fixmystreetapp/fixmystreet-mobile/www/cobrands/lokalizo/images/radar-lokalizo.png"
     inkscape:export-xdpi="92.199997"
     inkscape:export-ydpi="92.199997"><g
       style="opacity:0.2;"
       id="g5"><g
         id="g7"><path
           style="fill:none;stroke:#FFFFFF;stroke-width:2;stroke-miterlimit:10;"
           d="M320,640C143.125,640,0,496.875,0,320           S143.125,0,320,0s320,143.125,320,320S496.875,640,320,640z"
           id="path9" /><path
           style="fill:none;stroke:#FFFFFF;stroke-width:2;stroke-miterlimit:10;"
           d="M586.719,320           c0-147.344-119.375-266.719-266.719-266.719S53.281,172.656,53.281,320S172.656,586.719,320,586.719S586.719,467.344,586.719,320           z"
           id="path11" /><path
           style="fill:none;stroke:#FFFFFF;stroke-width:2;stroke-miterlimit:10;"
           d="M320,533.281           c-117.969,0-213.281-95.312-213.281-213.281S202.031,106.719,320,106.719S533.281,202.031,533.281,320           S437.969,533.281,320,533.281z"
           id="path13" /><path
           style="fill:none;stroke:#FFFFFF;stroke-width:2;stroke-miterlimit:10;"
           d="M480,320c0-88.438-71.562-160-160-160           s-160,71.562-160,160s71.562,160,160,160S480,408.438,480,320z"
           id="path15" /><path
           style="fill:none;stroke:#FFFFFF;stroke-width:2;stroke-miterlimit:10;"
           d="M320,426.719           c-58.906,0-106.719-47.812-106.719-106.719S261.094,213.281,320,213.281S426.719,261.094,426.719,320           S378.906,426.719,320,426.719z"
           id="path17" /><path
           style="fill:none;stroke:#FFFFFF;stroke-width:2;stroke-miterlimit:10;"
           d="M373.281,320           c0-29.531-23.75-53.281-53.281-53.281s-53.281,23.75-53.281,53.281s23.75,53.281,53.281,53.281S373.281,349.531,373.281,320z"
           id="path19" /></g><g
         id="g21"><line
           style="fill:none;stroke:#FFFFFF;stroke-width:2;stroke-miterlimit:10;"
           x1="320"
           y1="320"
           x2="320"
           y2="640"
           id="line23" /><line
           style="fill:none;stroke:#FFFFFF;stroke-width:2;stroke-miterlimit:10;"
           x1="320"
           y1="320"
           x2="546.25"
           y2="546.25"
           id="line25" /><line
           style="fill:none;stroke:#FFFFFF;stroke-width:2;stroke-miterlimit:10;"
           x1="320"
           y1="320"
           x2="640"
           y2="320"
           id="line27" /><line
           style="fill:none;stroke:#FFFFFF;stroke-width:2;stroke-miterlimit:10;"
           x1="320"
           y1="320"
           x2="546.25"
           y2="93.75"
           id="line29" /><line
           style="fill:none;stroke:#FFFFFF;stroke-width:2;stroke-miterlimit:10;"
           x1="320"
           y1="320"
           x2="320"
           y2="0"
           id="line31" /><line
           style="fill:none;stroke:#FFFFFF;stroke-width:2;stroke-miterlimit:10;"
           x1="320"
           y1="320"
           x2="93.75"
           y2="93.75"
           id="line33" /><line
           style="fill:none;stroke:#FFFFFF;stroke-width:2;stroke-miterlimit:10;"
           x1="320"
           y1="320"
           x2="0"
           y2="320"
           id="line35" /><line
           style="fill:none;stroke:#FFFFFF;stroke-width:2;stroke-miterlimit:10;"
           x1="320"
           y1="320"
           x2="93.75"
           y2="546.25"
           id="line37" /></g></g></g><g
     id="logo"
     transform="translate(0,0.5005)"
     inkscape:export-filename="/home/altin/fixmystreetapp/fixmystreet-mobile/www/cobrands/lokalizo/images/radar-lokalizo.png"
     inkscape:export-xdpi="92.199997"
     inkscape:export-ydpi="92.199997"><g
       id="g40"><path
         style="fill:#f9f9f9;fill-opacity:1;opacity:0.5"
         d="m 320.005,208.692 c -61.608,0 -111.71,49.705 -111.71,110.799 0,61.094 50.102,110.816 111.71,110.816 61.588,0 111.7,-49.723 111.7,-110.816 0,-61.093 -50.111,-110.799 -111.7,-110.799"
         id="path42"
         inkscape:connector-curvature="0"
         sodipodi:nodetypes="csssc" /></g></g><g
     transform="matrix(1.25,0,0,1.25,215.14375,291.46875)"
     id="g4149"
     inkscape:export-filename="/home/altin/fixmystreetapp/fixmystreet-mobile/www/cobrands/lokalizo/images/radar-lokalizo.png"
     inkscape:export-xdpi="92.199997"
     inkscape:export-ydpi="92.199997"><g
       id="#88c557ff"><path
         style="opacity:1;fill:#88c557"
         inkscape:connector-curvature="0"
         id="path5"
         d="M 4.19,2.46 C 17.6,2.72 31.04,2.35 44.44,2.64 44.48,15.53 44.43,28.43 44.47,41.32 57.39,28.46 70.41,15.69 83.13,2.63 83.52,2.62 84.31,2.6 84.71,2.58 91.1,9.26 97.9,15.54 104.21,22.3 97.55,28.83 90.96,35.43 84.35,42.01 77.82,48.34 71.49,54.87 64.97,61.21 l -1.16,0.53 C 63.2,59.8 61.1,58.73 59.84,57.16 54.76,51.89 49.1,47.09 45.45,42.5 l -1.03,-0.06 c 1.25,-2.45 -2.49,-0.96 -1.94,-2.87 l -0.89,-0.15 -0.15,-0.87 -0.88,-0.13 -0.1,-0.91 -0.96,-0.02 0.01,-1 -1.02,0.01 0.02,-1.02 -1.02,0.03 0.03,-1.03 -1.04,0.03 0.04,-1.04 -1.06,0.05 0.11,-1.08 -1.09,0.1 0.05,-1.06 -1.05,0.03 0.04,-1.04 -1.06,0.05 0.1,-1.09 -1.09,0.11 0.07,-1.1 -1.12,0.12 0.13,-1.14 -1.16,0.15 0.22,-1.18 -1.18,0.22 0.14,-1.16 -1.14,0.12 0.12,-1.14 -1.16,0.13 0.21,-1.18 -1.21,0.22 0.23,-1.22 -1.23,0.26 0.2,-1.2 -1.2,0.13 0.2,-1.21 -1.24,0.27 0.28,-1.26 -1.27,0.26 0.26,-1.26 -1.26,0.27 0.27,-1.26 -1.26,0.26 0.25,-1.26 -1.26,0.26 0.26,-1.26 -1.26,0.25 0.26,-1.28 -1.29,0.31 0.3,-1.3 -1.31,0.3 0.32,-1.31 -1.31,0.33 0.32,-1.32 -1.31,0.32 0.3,-1.31 -1.31,0.29 0.3,-1.3 -1.3,0.3 L 11.64,8.34 10.3,8.69 10.65,7.34 9.3,7.7 9.65,6.35 8.3,6.7 8.66,5.35 7.32,5.71 7.65,4.38 6.42,4.66 C 6.44,4.36 6.46,3.78 6.47,3.49 5.51,3.64 4.81,3.12 4.19,2.46 Z" /></g><g
       id="#039653ff"><path
         style="opacity:1;fill:#039653"
         inkscape:connector-curvature="0"
         id="path8"
         d="M 44.44,2.64 C 57.32,2.45 70.24,2.47 83.13,2.63 70.41,15.69 57.39,28.46 44.47,41.32 44.43,28.43 44.48,15.53 44.44,2.64 Z" /><path
         style="opacity:1;fill:#039653"
         inkscape:connector-curvature="0"
         id="path10"
         d="m 123.82,2.51 c 13.25,-0.1 26.54,0.33 39.76,-0.24 -20.1,19.71 -39.87,39.74 -59.87,59.55 -6.05,-6.98 -13.07,-13.05 -19.36,-19.81 6.61,-6.58 13.2,-13.18 19.86,-19.71 6.22,6.38 12.51,12.71 18.92,18.88 1.09,-1.05 0.46,-2.77 0.67,-4.1 -0.04,-11.52 -0.08,-23.05 0.02,-34.57 z" /></g><g
       id="#41b759ff"><path
         style="opacity:1;fill:#41b759"
         inkscape:connector-curvature="0"
         id="path13-3"
         d="m 84.71,2.58 c 13.03,-0.15 26.07,-0.01 39.11,-0.07 -0.1,11.52 -0.06,23.05 -0.02,34.57 -0.21,1.33 0.42,3.05 -0.67,4.1 C 116.72,35.01 110.43,28.68 104.21,22.3 97.9,15.54 91.1,9.26 84.71,2.58 Z" /><path
         style="opacity:1;fill:#41b759"
         inkscape:connector-curvature="0"
         id="path15-6"
         d="m 64.97,61.21 c 6.52,-6.34 12.85,-12.87 19.38,-19.2 6.29,6.76 13.31,12.83 19.36,19.81 C 97.2,68.52 90.16,74.8 84.01,81.78 77.85,74.94 71.06,68.55 64.44,62.1 l 0.53,-0.89 z" /></g></g><text
     xml:space="preserve"
     style="font-style:normal;font-variant:normal;font-weight:normal;font-stretch:normal;font-size:32px;line-height:125%;font-family:'Elder Futhark';-inkscape-font-specification:'Elder Futhark';letter-spacing:0px;word-spacing:0px;fill:#000000;fill-opacity:1;stroke:none;stroke-width:1px;stroke-linecap:butt;stroke-linejoin:miter;stroke-opacity:1"
     x="222.19531"
     y="474.68829"
     id="text4189"
     sodipodi:linespacing="125%"
     inkscape:export-filename="/home/altin/fixmystreetapp/fixmystreet-mobile/www/cobrands/lokalizo/images/radar-lokalizo.png"
     inkscape:export-xdpi="92.199997"
     inkscape:export-ydpi="92.199997"><tspan
       sodipodi:role="line"
       id="tspan4191"
       x="222.19531"
       y="474.68829"
       style="font-style:normal;font-variant:normal;font-weight:bold;font-stretch:normal;font-family:'Open Sans';-inkscape-font-specification:'Open Sans';letter-spacing:5px;fill:#ffffff">LOKALIZO</tspan></text>
</svg>